<?xml version="1.0" encoding="UTF-8"?>
<!-- Generator: visioncortex VTracer 0.6.4 -->
<svg version="1.1" xmlns="http://www.w3.org/2000/svg" width="1024" height="1024">
<path d="M0 0 C337.92 0 675.84 0 1024 0 C1024 337.92 1024 675.84 1024 1024 C686.08 1024 348.16 1024 0 1024 C0 686.08 0 348.16 0 0 Z " fill="#4478A8" transform="translate(0,0)"/>
<path d="M0 0 C0.92 -0.01 1.84 -0.03 2.79 -0.04 C4.29 -0.05 4.29 -0.05 5.82 -0.06 C6.85 -0.07 7.87 -0.08 8.93 -0.09 C11.1 -0.1 13.28 -0.11 15.46 -0.12 C18.78 -0.14 22.1 -0.18 25.42 -0.22 C27.53 -0.23 29.64 -0.24 31.76 -0.25 C33.24 -0.28 33.24 -0.28 34.76 -0.3 C40.51 -0.28 44.13 0.11 48.55 4.18 C50.58 7.03 50.58 7.03 52.37 10.35 C52.71 10.96 53.04 11.57 53.38 12.2 C54.46 14.18 55.51 16.18 56.55 18.18 C56.91 18.85 57.26 19.53 57.63 20.22 C59.88 24.5 62.08 28.8 64.28 33.1 C66.25 36.99 68.24 40.86 70.23 44.74 C70.61 45.5 71 46.25 71.4 47.02 C74.1 52.3 76.84 57.56 79.62 62.8 C84.12 71.31 88.53 79.87 92.93 88.43 C98.31 98.9 103.72 109.35 109.17 119.79 C112.94 126.99 116.69 134.21 120.43 141.43 C121.02 142.56 121.61 143.7 122.21 144.87 C125.12 150.47 128.02 156.08 130.92 161.7 C137.71 174.82 144.58 187.9 151.51 200.95 C157.62 212.47 163.62 224.04 169.56 235.64 C174.33 244.95 179.2 254.19 184.33 263.31 C187.74 269.36 190.18 274.01 189.55 281.18 C188.3 284.62 187.17 286.63 184.43 289.05 C179.78 290.87 175.07 291.27 170.4 289.24 C168.08 287.85 165.85 286.35 163.62 284.8 C154.12 278.58 144.34 273.15 134.3 267.86 C133.6 267.49 132.9 267.12 132.17 266.73 C112.24 255.94 112.24 255.94 91.12 247.93 C90.33 247.69 89.55 247.45 88.74 247.21 C55.68 237.45 21.35 236.4 -12.45 243.18 C-13.39 243.36 -14.34 243.55 -15.32 243.74 C-37.41 248.24 -59.22 256.19 -76.45 271.18 C-77.25 271.86 -78.06 272.55 -78.89 273.26 C-95.14 287.44 -104.16 304.23 -113.88 323.13 C-117.87 330.89 -121.9 338.63 -125.97 346.36 C-126.96 348.26 -127.96 350.16 -128.94 352.06 C-130.39 354.84 -131.85 357.6 -133.32 360.36 C-133.75 361.2 -134.18 362.03 -134.62 362.88 C-137.45 368.14 -140.23 371.74 -146.14 373.76 C-149.5 374.37 -152.85 374.38 -156.25 374.42 C-157 374.42 -157.76 374.43 -158.53 374.44 C-160.13 374.45 -161.72 374.46 -163.32 374.47 C-164.94 374.48 -166.56 374.5 -168.18 374.53 C-170.54 374.58 -172.89 374.59 -175.25 374.6 C-175.96 374.62 -176.68 374.64 -177.42 374.66 C-182.96 374.63 -185.98 373.2 -190.45 370.18 C-192.04 368.32 -192.04 368.32 -192.95 366.43 C-193.43 365.51 -193.43 365.51 -193.92 364.57 C-195.44 357.69 -192.71 351.88 -189.54 345.97 C-188.95 344.83 -188.95 344.83 -188.35 343.67 C-187.08 341.23 -185.8 338.8 -184.51 336.36 C-183.63 334.68 -182.75 332.99 -181.87 331.3 C-179.76 327.26 -177.64 323.24 -175.52 319.21 C-174.16 316.64 -172.81 314.05 -171.45 311.47 C-169.94 308.59 -168.42 305.7 -166.9 302.83 C-163.71 296.8 -160.58 290.73 -157.45 284.68 C-153.47 277 -149.48 269.32 -145.45 261.68 C-140.84 252.95 -136.3 244.19 -131.76 235.43 C-127.52 227.24 -123.26 219.06 -118.99 210.89 C-115.08 203.41 -111.2 195.92 -107.32 188.43 C-103.45 180.95 -99.57 173.49 -95.63 166.05 C-90.67 156.66 -85.81 147.2 -80.95 137.75 C-74.98 126.15 -68.97 114.57 -62.92 103 C-60.21 97.82 -57.52 92.62 -54.82 87.43 C-50.63 79.36 -46.42 71.3 -42.18 63.26 C-39.5 58.19 -36.84 53.12 -34.19 48.04 C-33.19 46.13 -32.2 44.23 -31.2 42.33 C-28.67 37.49 -26.16 32.64 -23.72 27.75 C-22.48 25.28 -21.23 22.82 -19.98 20.36 C-19.09 18.59 -18.22 16.82 -17.34 15.05 C-13.4 7.3 -9.56 0.12 0 0 Z " fill="#FCFEFE" transform="translate(293.4462890625,322.822998046875)"/>
<path d="M0 0 C3.58 1.19 4.01 2.42 5.68 5.66 C6 6.32 6.33 6.97 6.66 7.65 C7.01 8.33 7.35 9.01 7.71 9.71 C8.84 11.93 9.95 14.15 11.06 16.38 C11.84 17.9 12.61 19.43 13.39 20.96 C14.92 23.96 16.44 26.97 17.96 29.98 C20.36 34.72 22.82 39.43 25.31 44.12 C26.08 45.58 26.85 47.03 27.61 48.48 C27.99 49.2 28.38 49.92 28.77 50.66 C31.19 55.27 33.6 59.88 36 64.5 C39.67 71.55 43.36 78.59 47.06 85.62 C47.46 86.38 47.85 87.13 48.26 87.9 C50.01 91.21 51.75 94.53 53.5 97.84 C55.04 100.77 56.58 103.7 58.12 106.62 C58.61 107.54 59.1 108.46 59.6 109.41 C60.04 110.26 60.49 111.1 60.95 111.98 C61.34 112.73 61.74 113.48 62.15 114.26 C63 116 63 116 63 117 C61.02 116.86 59.04 116.71 57.06 116.56 C55.41 116.44 55.41 116.44 53.72 116.32 C51.1 116.09 48.51 115.82 45.9 115.49 C40.9 114.94 35.96 114.82 30.94 114.8 C30 114.79 29.06 114.78 28.09 114.78 C-4.57 114.58 -33.49 117.82 -65 127 C-63.27 122.36 -61.04 118.04 -58.78 113.65 C-58.36 112.83 -57.95 112.02 -57.52 111.18 C-56.63 109.46 -55.74 107.73 -54.85 106 C-53.53 103.43 -52.21 100.86 -50.89 98.29 C-45.74 88.26 -40.53 78.27 -35.27 68.31 C-32.28 62.63 -29.32 56.94 -26.38 51.25 C-25.8 50.14 -25.23 49.04 -24.64 47.9 C-22.76 44.26 -20.88 40.63 -19 37 C-18.65 36.33 -18.3 35.65 -17.95 34.96 C-15.4 30.04 -12.86 25.11 -10.31 20.19 C-9.97 19.52 -9.62 18.85 -9.26 18.16 C-8.28 16.24 -7.29 14.33 -6.3 12.42 C-5.74 11.32 -5.17 10.23 -4.59 9.1 C-3.04 6.08 -1.51 3.04 0 0 Z " fill="#4678A7" transform="translate(310,392)"/>
<path d="M0 0 C6.6 0 13.2 0 20 0 C29.42 16.4 38.74 32.85 47.89 49.39 C50.23 53.62 52.59 57.82 55 62 C58.69 57.78 61.1 53.27 63.62 48.31 C64.51 46.6 65.4 44.89 66.29 43.18 C66.74 42.31 67.19 41.44 67.66 40.55 C70.09 35.93 72.59 31.34 75.2 26.81 C77.49 22.83 79.54 18.86 81.37 14.65 C81.79 13.77 82.21 12.89 82.64 11.98 C83.9 9.42 83.9 9.42 84.84 6.84 C85.99 4.52 85.99 4.52 90 1 C96.6 1 103.2 1 110 1 C110 34.66 110 68.32 110 103 C103.4 103 96.8 103 90 103 C89.67 82.54 89.34 62.08 89 41 C85.37 47.93 81.74 54.86 78 62 C75.69 66.16 73.37 70.31 71 74.44 C66.3 82.61 66.3 82.61 62 91 C57.71 91 53.42 91 49 91 C48.06 89.29 47.11 87.59 46.14 85.83 C45.18 84.09 44.21 82.36 43.25 80.62 C42.29 78.89 41.34 77.17 40.39 75.44 C34.36 64.57 28.17 53.8 22 43 C21.67 62.8 21.34 82.6 21 103 C14.07 103 7.14 103 0 103 C0 69.01 0 35.02 0 0 Z " fill="#FBFDFE" transform="translate(517,460)"/>
<path d="M0 0 C9.29 7.81 17.23 19.55 18.95 31.81 C19.88 44.7 18.76 56.13 12.95 67.81 C12.29 67.81 11.63 67.81 10.95 67.81 C9.16 65.99 7.59 64.03 5.96 62.06 C4.03 59.77 4.03 59.77 1.71 58.06 C-0.77 56.09 -2.41 54.53 -4.05 51.81 C-4.5 47.71 -4.37 43.83 -4.16 39.72 C-3.95 31.91 -6.34 25.66 -11.25 19.63 C-17.87 12.95 -25.4 9.54 -34.8 9.43 C-44.28 9.6 -51.36 12.24 -58.3 18.74 C-65.59 27.31 -66.93 36.92 -66.05 47.81 C-64.19 56.05 -60.53 63.61 -53.55 68.6 C-46.82 72.81 -46.82 72.81 -39.1 73.41 C-26.69 72.21 -26.69 72.21 -21.79 75.18 C-17.31 78.89 -13.63 83.23 -10.05 87.81 C-11.05 89.81 -11.05 89.81 -13.53 90.84 C-28.65 95.78 -43.65 97.01 -58.45 90.26 C-71.72 83.41 -81.17 74.13 -86.55 59.93 C-91.13 45.44 -90.3 29.78 -83.43 16.18 C-75.53 2.71 -64.09 -6 -49.05 -10.19 C-31.45 -13.8 -14.54 -10.43 0 0 Z " fill="#F8FCFD" transform="translate(728.0546875,470.19140625)"/>
<path d="M0 0 C27.06 0 54.12 0 82 0 C82 5.94 82 11.88 82 18 C72.1 18 62.2 18 52 18 C52 45.72 52 73.44 52 102 C44.74 102 37.48 102 30 102 C30 74.28 30 46.56 30 18 C20.1 18 10.2 18 0 18 C0 12.06 0 6.12 0 0 Z " fill="#FCFEFE" transform="translate(750,461)"/>
<path d="M0 0 C27.06 0 54.12 0 82 0 C82 5.94 82 11.88 82 18 C72.1 18 62.2 18 52 18 C52 45.72 52 73.44 52 102 C44.74 102 37.48 102 30 102 C30 74.28 30 46.56 30 18 C20.1 18 10.2 18 0 18 C0 12.06 0 6.12 0 0 Z " fill="#F9FDFE" transform="translate(843,461)"/>
<path d="M0 0 C5.99 4.25 10 10.41 12.25 17.38 C13.12 26.21 12.89 34.58 8.25 42.38 C5.94 45.12 5.94 45.12 3.25 47.38 C2.71 47.88 2.17 48.38 1.62 48.9 C-4.89 54.88 -10.83 56.95 -19.56 56.88 C-20.75 56.87 -20.75 56.87 -21.96 56.86 C-28.52 56.67 -33.36 55.22 -38.75 51.38 C-39.33 51 -39.91 50.63 -40.5 50.25 C-46.63 45.84 -49.75 38.42 -51.75 31.38 C-52.88 20.93 -51.14 13.41 -44.69 5.19 C-32.67 -7.82 -14.73 -8.87 0 0 Z " fill="#99B935" transform="translate(471.75,644.625)"/>
<path d="M0 0 C0.33 0 0.66 0 1 0 C1 33.99 1 67.98 1 103 C-34.64 103 -70.28 103 -107 103 C-107 102.67 -107 102.34 -107 102 C-105.76 101.95 -104.52 101.9 -103.25 101.84 C-73.58 100.1 -48.2 88.12 -27.81 66.75 C-11.03 47.65 -2.04 25.27 0 0 Z " fill="#FAFCFD" transform="translate(1023,921)"/>
<path d="M0 0 C0.33 0 0.66 0 1 0 C1.06 0.84 1.06 0.84 1.12 1.69 C3.42 32.65 13.93 60.07 38 81 C58.28 97.18 81.01 105.73 107 107 C107 107.33 107 107.66 107 108 C71.69 108 36.38 108 0 108 C0 72.36 0 36.72 0 0 Z " fill="#FAFDFD" transform="translate(0,916)"/>
<path d="M0 0 C33.99 0 67.98 0 103 0 C103 0.33 103 0.66 103 1 C101.69 1.13 101.69 1.13 100.35 1.26 C71.36 4.57 43.73 17.22 25.08 40.39 C11.05 59.01 2.01 80.53 1 104 C0.67 104 0.34 104 0 104 C0 69.68 0 35.36 0 0 Z " fill="#FCFDFE" transform="translate(0,0)"/>
<path d="M0 0 C35.64 0 71.28 0 108 0 C108 34.98 108 69.96 108 106 C107.67 106 107.34 106 107 106 C106.9 104.71 106.8 103.41 106.7 102.08 C105.86 91.93 104.66 82.58 101 73 C100.64 72.02 100.28 71.04 99.91 70.04 C89.41 43.13 69.09 21.72 42.63 10.02 C28.66 4.17 15.11 1.4 0 1 C0 0.67 0 0.34 0 0 Z " fill="#FAFDFD" transform="translate(916,0)"/>
<path d="M0 0 C3.72 1.88 6.4 4.45 8.34 8.14 C9.11 11.01 8.63 13.29 8.27 16.24 C8.19 23.55 10.97 26.99 15.81 32.02 C16.97 33.18 18.14 34.31 19.32 35.44 C21.12 37.16 22.83 38.95 24.54 40.74 C30.62 46.97 30.62 46.97 38.53 50.01 C41.95 50.02 41.95 50.02 45.12 49.52 C48.48 49.32 49.84 50.06 52.55 51.98 C56.25 55.32 58.56 58.45 59.2 63.52 C59.42 68.53 58.79 72.1 55.93 76.35 C50.52 81.23 47.07 81.7 39.91 81.63 C34.75 81.15 32.23 78.68 28.74 75.11 C26.43 71.58 26.88 70.04 27.48 65.94 C27.67 59.13 25.9 55.9 21.45 51.08 C19.68 49.26 17.89 47.5 16.05 45.76 C14.18 43.97 12.38 42.13 10.58 40.27 C4.43 33.95 4.43 33.95 -3.5 30.62 C-6.66 30.59 -6.66 30.59 -9.56 31.06 C-12.35 31.38 -13.61 31.09 -16.07 29.79 C-20.48 26.21 -22.67 23.22 -23.45 17.66 C-23.7 11.73 -23.18 7.92 -19.07 3.35 C-13.76 -1.31 -6.7 -2.1 0 0 Z " fill="#9ABA3A" transform="translate(700.0703125,496.6484375)"/>
<path d="M0 0 C0.66 0 1.32 0 2 0 C2.51 1.18 2.51 1.18 3.03 2.38 C8.05 13.26 13.79 18.82 25 23 C25 23.66 25 24.32 25 25 C24.21 25.34 23.43 25.68 22.62 26.03 C11.74 31.05 6.18 36.79 2 48 C1.34 48 0.68 48 0 48 C-0.34 47.21 -0.68 46.43 -1.03 45.62 C-6.05 34.74 -11.79 29.18 -23 25 C-23 24.34 -23 23.68 -23 23 C-22.21 22.66 -21.43 22.32 -20.62 21.97 C-9.74 16.95 -4.18 11.21 0 0 Z " fill="#9FB9D2" transform="translate(967,944)"/>
<path d="M0 0 C0 0.66 0 1.32 0 2 C0.58 2.23 1.15 2.45 1.75 2.69 C4.75 4.44 6.12 6.06 8 9 C8.59 12.54 8.41 16.1 8.31 19.67 C8.36 23.97 8.79 26.3 11.86 29.43 C14.37 31.66 17.11 33.3 20 35 C20 35.66 20 36.32 20 37 C20.56 37.21 21.11 37.41 21.69 37.62 C24.97 39.58 26.71 41.94 29 45 C29 45.66 29 46.32 29 47 C29.66 47 30.32 47 31 47 C30.67 47.99 30.34 48.98 30 50 C26.54 46.86 23.13 43.68 19.75 40.46 C18.59 39.37 17.43 38.3 16.25 37.23 C6.47 28.37 6.47 28.37 5.29 22.42 C5.31 19.22 5.63 16.18 6 13 C4.7 8.64 3.52 7.41 -0.06 4.62 C-4.58 2.34 -9.06 2.34 -14 3 C-17.83 4.28 -19.61 5.59 -22.38 8.5 C-24.89 13.91 -25.15 19.44 -23.3 25.16 C-21.84 28.07 -20.06 29.96 -17.5 31.94 C-14.21 33.21 -14.21 33.21 -11.55 32.64 C-6.37 31.92 -2.62 32.25 1.6 35.4 C4.88 38.14 7.9 41.12 10.87 44.19 C12.75 46.12 14.68 47.97 16.63 49.82 C26.05 59.1 26.05 59.1 26.82 64.95 C26.83 68.41 26.56 71.59 26 75 C26 75.99 26 76.98 26 78 C24.51 76.98 24.51 76.98 23 75 C22.78 72.35 22.72 69.95 22.81 67.31 C22.83 66.26 22.83 66.26 22.85 65.19 C22.89 63.46 22.94 61.73 23 60 C21.35 59.34 19.7 58.68 18 58 C18 57.34 18 56.68 18 56 C17.44 55.79 16.89 55.59 16.31 55.38 C13.74 53.84 12.26 51.98 10.42 49.65 C8.41 47.32 6.12 45.43 3.75 43.49 C2 42 2 42 0.16 39.86 C-2.63 37.46 -4.3 37.51 -7.94 37.44 C-12.51 37.34 -15.3 36.79 -19 34 C-19 33.34 -19 32.68 -19 32 C-19.9 31.91 -19.9 31.91 -20.81 31.81 C-23.99 30.63 -24.56 29.02 -26 26 C-28.04 20.2 -28.98 14.93 -27 9 C-26.01 8.34 -25.02 7.68 -24 7 C-23.73 6.38 -23.46 5.76 -23.19 5.12 C-18.57 -3.14 -8.05 -2.37 0 0 Z " fill="#4C7C81" transform="translate(702,494)"/>
<path d="M0 0 C5.98 4.24 10.03 10.41 12.25 17.38 C12.52 20.93 12.52 20.93 12.5 24.81 C12.51 26.73 12.51 26.73 12.52 28.68 C12.26 32.26 11.55 35.05 10.25 38.38 C9.09 34.75 9.25 31.46 9.38 27.69 C9.42 21.82 9.06 16.62 6.25 11.38 C5.25 10.37 4.25 9.37 3.25 8.38 C3.25 7.72 3.25 7.05 3.25 6.38 C2.59 6.38 1.93 6.38 1.25 6.38 C0.24 5.38 -0.76 4.38 -1.75 3.38 C-3.58 2.21 -3.58 2.21 -5.56 1.25 C-6.21 0.92 -6.85 0.58 -7.52 0.24 C-14.65 -2.53 -24.9 -3.31 -32.16 -0.79 C-38.3 2.84 -43.81 8.47 -47.75 14.38 C-48.12 16.69 -48.12 16.69 -48.16 19.26 C-48.2 20.2 -48.24 21.14 -48.28 22.1 C-48.31 23.08 -48.34 24.06 -48.38 25.06 C-48.41 26.05 -48.45 27.04 -48.49 28.06 C-48.59 30.5 -48.67 32.94 -48.75 35.38 C-47.76 35.71 -46.77 36.03 -45.75 36.38 C-45.42 38.68 -45.09 41 -44.75 43.38 C-44.09 43.38 -43.43 43.38 -42.75 43.38 C-42.52 44.16 -42.3 44.94 -42.06 45.75 C-40.41 49.05 -39.13 49.19 -35.75 50.38 C-35.09 51.37 -34.43 52.36 -33.75 53.38 C-41.3 50.93 -45.05 46.5 -48.67 39.75 C-52.17 32.05 -53.21 24.11 -51.1 15.81 C-46.98 5.64 -39.61 -0.26 -29.75 -4.62 C-19.69 -7.85 -8.82 -5.31 0 0 Z " fill="#8BB266" transform="translate(471.75,644.625)"/>
<path d="M0 0 C6.6 0 13.2 0 20 0 C20 0.33 20 0.66 20 1 C13.73 1 7.46 1 1 1 C1.16 3.79 1.33 6.57 1.5 9.45 C2.36 26.66 2.11 43.9 2.07 61.13 C2.06 65.75 2.05 70.37 2.05 74.99 C2.04 83.99 2.02 93 2 102 C9.92 101.5 9.92 101.5 18 101 C18.91 93.9 19.21 86.9 19.32 79.75 C19.34 78.6 19.36 77.46 19.38 76.29 C19.44 72.67 19.5 69.05 19.56 65.44 C19.61 62.97 19.65 60.51 19.69 58.04 C19.8 52.03 19.9 46.02 20 40 C20.66 40.33 21.32 40.66 22 41 C21.67 61.46 21.34 81.92 21 103 C14.07 103 7.14 103 0 103 C0 69.01 0 35.02 0 0 Z " fill="#D8EDF8" transform="translate(517,460)"/>
<path d="M0 0 C0.66 0 1.32 0 2 0 C2.03 3.31 2.05 6.62 2.06 9.94 C2.07 10.88 2.08 11.83 2.09 12.8 C2.09 13.7 2.09 14.6 2.1 15.53 C2.1 16.36 2.11 17.19 2.11 18.05 C2 20 2 20 1 21 C-1.06 21.15 -3.12 21.23 -5.19 21.28 C-6.44 21.32 -7.7 21.36 -8.99 21.39 C-11 21.45 -13.01 21.5 -15.02 21.55 C-16.95 21.6 -18.88 21.66 -20.81 21.72 C-21.97 21.75 -23.14 21.78 -24.33 21.81 C-26.92 21.7 -26.92 21.7 -28 23 C-28.1 25.49 -28.13 27.96 -28.11 30.46 C-28.11 31.24 -28.11 32.02 -28.11 32.82 C-28.11 35.41 -28.11 38.01 -28.1 40.6 C-28.1 42.39 -28.09 44.18 -28.09 45.97 C-28.09 50.7 -28.08 55.43 -28.07 60.15 C-28.06 64.97 -28.05 69.79 -28.05 74.61 C-28.04 84.07 -28.02 93.54 -28 103 C-28.99 103.5 -28.99 103.5 -30 104 C-30 75.95 -30 47.9 -30 19 C-20.1 19 -10.2 19 0 19 C0 12.73 0 6.46 0 0 Z M-52 104 C-44.74 104 -37.48 104 -30 104 C-30 104.33 -30 104.66 -30 105 C-37.26 105 -44.52 105 -52 105 C-52 104.67 -52 104.34 -52 104 Z " fill="#527797" transform="translate(925,460)"/>
<path d="M0 0 C3.72 1.88 6.4 4.45 8.34 8.14 C9.11 11.01 8.63 13.29 8.27 16.24 C8.19 23.55 10.97 26.99 15.81 32.02 C16.97 33.18 18.14 34.31 19.32 35.44 C21.12 37.16 22.83 38.95 24.54 40.74 C30.63 46.97 30.63 46.97 38.56 50.04 C42.01 50.06 42.01 50.06 45.2 49.58 C48.21 49.33 49.3 49.65 51.74 51.35 C52.46 52.01 53.19 52.67 53.93 53.35 C52.94 53.85 52.94 53.85 51.93 54.35 C51.35 54.03 50.77 53.71 50.17 53.38 C47.19 52.01 45.27 52.49 42.05 52.98 C37.85 53.41 36.32 53.54 32.43 51.66 C31.6 50.9 30.78 50.14 29.93 49.35 C29.21 48.71 28.49 48.07 27.74 47.41 C25.93 45.35 25.93 45.35 24.62 43.04 C22.72 40.02 20.58 37.74 18.05 35.23 C17.21 34.38 16.37 33.53 15.5 32.66 C13.03 30.3 13.03 30.3 10.23 28.73 C7.93 27.35 7.93 27.35 5.93 24.35 C5.47 21.04 5.15 17.75 4.89 14.42 C4.4 9.46 3.21 6.3 -0.07 2.35 C-4.95 0.73 -9.3 0.54 -13.95 2.66 C-16.29 4.35 -16.29 4.35 -18.07 7.35 C-19.06 7.35 -20.05 7.35 -21.07 7.35 C-19.67 3.98 -18.15 2.31 -15.07 0.35 C-10.2 -1.27 -4.94 -1.55 0 0 Z " fill="#8DB463" transform="translate(700.0703125,496.6484375)"/>
<path d="M0 0 C0.33 0 0.66 0 1 0 C1.33 27.39 1.66 54.78 2 83 C11.88 83.96 11.88 83.96 20 81 C20.13 78.48 20.19 75.98 20.21 73.45 C20.22 72.27 20.22 72.27 20.24 71.06 C20.27 68.43 20.29 65.81 20.32 63.18 C20.34 61.37 20.36 59.55 20.38 57.74 C20.43 52.95 20.48 48.17 20.53 43.38 C20.58 38.5 20.64 33.62 20.69 28.74 C20.8 19.16 20.9 9.58 21 0 C21.33 0 21.66 0 22 0 C22 27.72 22 55.44 22 84 C14.74 84 7.48 84 0 84 C0 56.28 0 28.56 0 0 Z " fill="#DFF3FA" transform="translate(780,479)"/>
<path d="M0 0 C0.66 0.33 1.32 0.66 2 1 C-12.89 29.85 -12.89 29.85 -19.13 41.64 C-21.74 46.57 -24.3 51.51 -26.84 56.46 C-27.52 57.79 -28.21 59.12 -28.89 60.45 C-30.23 63.07 -31.57 65.68 -32.91 68.3 C-33.53 69.51 -34.16 70.72 -34.78 71.93 C-35.33 73.01 -35.88 74.08 -36.44 75.19 C-37.8 77.65 -39.24 79.81 -41 82 C-41 80.35 -41 78.7 -41 77 C-40.34 77 -39.68 77 -39 77 C-38.91 75.82 -38.91 75.82 -38.82 74.62 C-37.69 69.64 -35.38 65.58 -32.94 61.12 C-32.47 60.25 -31.99 59.37 -31.51 58.46 C-30.34 56.3 -29.18 54.15 -28 52 C-27.34 52 -26.68 52 -26 52 C-25.88 51.01 -25.88 51.01 -25.75 50 C-24.92 46.66 -23.57 43.98 -21.99 40.94 C-20.84 38.68 -19.89 36.37 -19 34 C-18.34 34 -17.68 34 -17 34 C-16.83 33.44 -16.66 32.89 -16.48 32.31 C-13.5 22.9 -8.75 14.62 -4 6 C-3.34 6 -2.68 6 -2 6 C-1.86 5.2 -1.71 4.39 -1.56 3.56 C-1 1 -1 1 0 0 Z " fill="#577C9C" transform="translate(211,461)"/>
<path d="M0 0 C2.86 0.03 5.71 0.1 8.56 0.19 C9.36 0.19 10.16 0.2 10.99 0.21 C16.86 0.42 20.83 1.73 25 6 C28.22 11.75 29.23 19.58 27.46 25.95 C26.05 29.65 24.56 32.17 21 34 C19.68 34 18.36 34 17 34 C17 34.66 17 35.32 17 36 C11.78 37.74 6.15 37.92 1.06 35.75 C-1.01 33.99 -2.51 32.27 -4 30 C-3.67 29.34 -3.34 28.68 -3 28 C-2.22 28.64 -1.43 29.28 -0.62 29.94 C4.54 33.99 9.61 33.59 16 33 C19.88 31.23 21.46 29.78 23.88 26.31 C25.72 20.87 25.72 16.21 23.94 10.75 C21.39 7.13 19.19 4.62 15 3 C11.55 2.79 8.24 2.87 4.79 3.12 C3.87 3.08 2.95 3.04 2 3 C1.34 2.01 0.68 1.02 0 0 Z " fill="#50807E" transform="translate(733,544)"/>
<path d="M0 0 C0.74 -0.01 1.48 -0.02 2.25 -0.02 C6.46 -0.01 9.57 0.41 13.44 2.25 C14.63 2.58 15.83 2.91 17.06 3.25 C20.44 4.25 20.44 4.25 23.44 6.25 C23.11 7.57 22.78 8.89 22.44 10.25 C21.63 9.83 20.82 9.41 19.99 8.97 C18.92 8.42 17.85 7.88 16.75 7.31 C15.69 6.77 14.64 6.22 13.55 5.66 C6.79 2.6 -1.11 2.02 -8.29 4 C-16.8 7.28 -24.62 11.95 -28.61 20.48 C-29.32 22.38 -29.95 24.31 -30.56 26.25 C-30.89 26.25 -31.22 26.25 -31.56 26.25 C-31.01 21.68 -30.15 17.58 -28.56 13.25 C-27.57 13.25 -26.58 13.25 -25.56 13.25 C-25.49 12.49 -25.43 11.73 -25.36 10.95 C-24.32 7.42 -23.04 6.83 -19.88 5.06 C-19.03 4.57 -18.18 4.09 -17.3 3.58 C-11.38 0.7 -6.48 -0.07 0 0 Z " fill="#4E7D81" transform="translate(451.5625,636.75)"/>
<path d="M0 0 C-1.33 0.67 -2.67 1.33 -4 2 C-4.89 2.45 -5.79 2.89 -6.71 3.36 C-8.96 4.48 -11.22 5.6 -13.47 6.72 C-14.67 7.31 -15.87 7.91 -17.06 8.5 C-17.66 8.8 -18.26 9.09 -18.88 9.39 C-22.35 11.12 -25.69 12.98 -29 15 C-29.75 15.39 -30.49 15.79 -31.26 16.19 C-41.78 22.14 -49.71 31.36 -58 40 C-58.66 39.67 -59.32 39.34 -60 39 C-57.02 35.65 -54.02 32.31 -51 29 C-50.43 28.37 -49.86 27.74 -49.27 27.09 C-40.84 18.25 -13.21 -4.88 0 0 Z " fill="#537998" transform="translate(258,573)"/>
<path d="M0 0 C0.66 0 1.32 0 2 0 C0.7 4.18 -0.88 7.95 -2.91 11.82 C-3.48 12.93 -4.05 14.03 -4.65 15.16 C-5.26 16.33 -5.87 17.49 -6.5 18.69 C-7.14 19.91 -7.77 21.13 -8.41 22.35 C-10.27 25.9 -12.13 29.45 -14 33 C-14.48 33.92 -14.96 34.83 -15.46 35.78 C-17.48 39.63 -19.51 43.48 -21.54 47.32 C-24.41 52.77 -27.27 58.23 -30.12 63.69 C-30.61 64.62 -31.1 65.54 -31.6 66.5 C-32.73 68.67 -33.87 70.83 -35 73 C-36.07 69.34 -35.85 68.01 -34 64.62 C-33.54 63.76 -33.08 62.9 -32.61 62.02 C-32.08 61.02 -31.55 60.03 -31 59 C-29.71 56.47 -28.45 53.92 -27.19 51.38 C-26.58 50.15 -25.97 48.93 -25.36 47.71 C-24.68 46.37 -24.68 46.37 -24 45 C-23.34 45 -22.68 45 -22 45 C-21.89 44.28 -21.78 43.56 -21.66 42.82 C-20.96 39.82 -19.9 37.55 -18.45 34.83 C-17.94 33.86 -17.42 32.88 -16.89 31.87 C-16.08 30.36 -16.08 30.36 -15.25 28.81 C-14.19 26.82 -13.13 24.83 -12.08 22.83 C-11.56 21.86 -11.05 20.9 -10.52 19.9 C-8.28 15.63 -6.13 11.32 -4 7 C-3.34 7 -2.68 7 -2 7 C-1.86 6.22 -1.71 5.43 -1.56 4.62 C-1 2 -1 2 0 0 Z " fill="#587C9C" transform="translate(261,364)"/>
<path d="M0 0 C4.06 4.36 9 11.82 9 18 C9.66 18 10.32 18 11 18 C11.5 19.2 11.99 20.39 12.5 21.62 C14.34 25.79 16.5 29.65 18.81 33.56 C22.24 39.39 25.06 45.35 27.65 51.58 C29.19 55.26 30.88 58.63 33 62 C33.9 63.56 34.8 65.12 35.69 66.69 C36.12 67.45 36.56 68.22 37.01 69.01 C38 71 38 71 38 73 C37.34 73 36.68 73 36 73 C35.3 71.63 35.3 71.63 34.59 70.23 C32.37 65.9 30.16 61.58 27.94 57.25 C27.53 56.46 27.13 55.68 26.72 54.87 C20.54 42.83 14.24 30.86 7.77 18.97 C4.58 13.08 1.59 7.18 -1 1 C-0.67 0.67 -0.34 0.34 0 0 Z " fill="#567A98" transform="translate(351,341)"/>
<path d="M0 0 C0.97 2.91 0.95 4.79 0.75 7.94 C0.7 11.44 0.9 11.87 3.25 14.81 C4.61 15.9 4.61 15.9 6 17 C6.57 17.53 7.14 18.06 7.73 18.61 C11.71 21.04 16.23 20.37 20.79 20.4 C21.85 20.6 22.91 20.8 24 21 C25.04 22.64 26.03 24.32 27 26 C28.56 27.73 30.17 29.41 31.82 31.05 C32.75 31.97 33.67 32.9 34.63 33.86 C35.11 34.33 35.59 34.81 36.09 35.29 C37.57 36.75 39.04 38.22 40.51 39.69 C44.85 44.38 44.85 44.38 50 48 C49.67 48.99 49.34 49.98 49 51 C48.24 50.18 47.49 49.36 46.71 48.52 C43.88 45.47 41.01 42.46 38.12 39.46 C36.88 38.17 35.66 36.86 34.44 35.54 C27.62 27.66 27.62 27.66 18.57 23.21 C15.41 23.18 15.41 23.18 12.51 23.68 C9.71 24.04 8.47 23.75 6 22.44 C2.58 19.66 0.28 17.21 -1 13 C-1.89 3.78 -1.89 3.78 0 0 Z " fill="#8FB664" transform="translate(678,504)"/>
<path d="M0 0 C0.7 1.73 0.7 1.73 1 4 C-0.29 6.14 -0.29 6.14 -2.19 8.25 C-2.8 8.96 -3.41 9.66 -4.04 10.39 C-6 12 -6 12 -10 12 C-10 12.66 -10 13.32 -10 14 C-17.99 18.17 -30.86 17.39 -39.36 15.09 C-41.8 13.91 -43.85 12.65 -46 11 C-46.69 10.5 -47.39 9.99 -48.11 9.47 C-51.44 6.86 -53.25 5.29 -54 1 C-53.35 1.58 -53.35 1.58 -52.68 2.17 C-42.03 11.49 -34.05 14.05 -20.14 13.25 C-12.85 12.4 -7.77 8.22 -3 3 C-2.34 3 -1.68 3 -1 3 C-0.67 2.01 -0.34 1.02 0 0 Z " fill="#528176" transform="translate(479,687)"/>
<path d="M0 0 C0 0.99 0 1.98 0 3 C-1.9 4.82 -3.8 6.5 -5.81 8.19 C-10.69 12.44 -13.52 15.52 -15 22 C-15.18 22.62 -15.35 23.23 -15.53 23.87 C-17.44 32.56 -15.88 40.18 -12 48 C-11.67 48.73 -11.33 49.46 -10.99 50.22 C-10.12 52.17 -10.12 52.17 -8 53 C-8.33 53.99 -8.66 54.98 -9 56 C-16.39 47.4 -19.82 38.62 -19.37 27.2 C-18.19 17.05 -13.71 9.68 -6 3 C-4.03 1.94 -2.04 0.92 0 0 Z " fill="#5D7F9B" transform="translate(680,481)"/>
<path d="M0 0 C1.22 1.17 2.45 2.32 3.7 3.46 C14.05 12.9 14.05 12.9 15.38 19.39 C15.39 22.86 15.12 26.08 14.59 29.51 C14.59 30.5 14.59 31.49 14.59 32.51 C13.1 31.49 13.1 31.49 11.59 29.51 C11.37 26.86 11.31 24.46 11.4 21.82 C11.42 20.77 11.42 20.77 11.44 19.7 C11.48 17.97 11.53 16.24 11.59 14.51 C9.11 13.52 9.11 13.52 6.59 12.51 C6.59 11.85 6.59 11.19 6.59 10.51 C6.03 10.3 5.48 10.1 4.9 9.88 C2.33 8.35 0.86 6.49 -0.98 4.16 C-3.02 1.8 -5.36 -0.12 -7.76 -2.1 C-10.6 -4.5 -12.21 -5.88 -13.41 -9.49 C-17.37 -9.82 -21.33 -10.15 -25.41 -10.49 C-25.41 -10.82 -25.41 -11.15 -25.41 -11.49 C-23.83 -11.71 -22.24 -11.92 -20.66 -12.12 C-19.78 -12.23 -18.9 -12.35 -17.99 -12.47 C-10.64 -12.53 -4.94 -4.78 0 0 Z " fill="#50817A" transform="translate(713.41015625,539.490234375)"/>
<path d="M0 0 C9.9 0 19.8 0 30 0 C30 0.33 30 0.66 30 1 C28.83 1.03 28.83 1.03 27.65 1.06 C24.14 1.16 20.63 1.26 17.12 1.38 C15.29 1.42 15.29 1.42 13.42 1.47 C12.25 1.51 11.08 1.55 9.88 1.59 C8.8 1.62 7.73 1.65 6.61 1.68 C3.84 1.75 3.84 1.75 2 4 C1.74 6.65 1.74 6.65 1.84 9.8 C1.85 11.04 1.86 12.29 1.88 13.58 C1.89 14.26 1.9 14.93 1.91 15.63 C1.96 19.31 1.98 22.99 2 26.67 C2 27.47 2 28.27 2.01 29.09 C2.04 40.09 1.76 51.07 1.5 62.06 C1.48 63.1 1.45 64.15 1.43 65.22 C1.29 71.15 1.15 77.07 1 83 C0.67 83 0.34 83 0 83 C0 55.61 0 28.22 0 0 Z " fill="#567897" transform="translate(802,480)"/>
<path d="M0 0 C0.33 0 0.66 0 1 0 C1 20.13 1 40.26 1 61 C0.67 61 0.34 61 0 61 C-0.33 44.17 -0.66 27.34 -1 10 C-4.36 13.36 -5.81 15.16 -7.75 19.25 C-8.39 20.59 -8.39 20.59 -9.05 21.95 C-9.36 22.63 -9.68 23.3 -10 24 C-10.66 23.67 -11.32 23.34 -12 23 C-10.2 17.92 -7.51 13.36 -4.88 8.69 C-4.41 7.85 -3.94 7.02 -3.46 6.15 C-2.31 4.1 -1.15 2.05 0 0 Z " fill="#4C718F" transform="translate(605,502)"/>
<path d="M0 0 C-16.12 11.64 -35.77 20.78 -56 19 C-56 18.67 -56 18.34 -56 18 C-38.14 14.74 -38.14 14.74 -30 14 C-30 13.34 -30 12.68 -30 12 C-29.47 11.84 -28.93 11.68 -28.38 11.52 C-22.97 9.83 -18.07 7.64 -13.07 4.99 C-11 4 -11 4 -9 4 C-9 3.34 -9 2.68 -9 2 C-3.38 -1.12 -3.38 -1.12 0 0 Z " fill="#4F7496" transform="translate(979,1003)"/>
<path d="M0 0 C0.66 0 1.32 0 2 0 C0.18 4.88 -2.16 9.48 -4.5 14.12 C-5.15 15.43 -5.15 15.43 -5.82 16.76 C-9 23.07 -12.23 29.36 -15.5 35.62 C-15.92 36.44 -16.34 37.25 -16.78 38.08 C-17.17 38.83 -17.56 39.58 -17.97 40.35 C-18.31 41.01 -18.66 41.67 -19.01 42.35 C-20 44 -20 44 -22 46 C-21.67 43.69 -21.34 41.38 -21 39 C-20.34 39 -19.68 39 -19 39 C-19 37.35 -19 35.7 -19 34 C-17.52 33.5 -17.52 33.5 -16 33 C-15.92 32.35 -15.84 31.69 -15.75 31.02 C-14.73 26.92 -12.87 23.43 -10.94 19.69 C-10.56 18.95 -10.18 18.21 -9.79 17.44 C-8.87 15.63 -7.94 13.81 -7 12 C-6.34 12 -5.68 12 -5 12 C-4.92 11.13 -4.84 10.27 -4.75 9.38 C-3.89 5.49 -2.45 3.11 0 0 Z " fill="#587D9D" transform="translate(144,589)"/>
<path d="M0 0 C-2.47 7.87 -10.09 13.4 -17.19 17.16 C-21.15 18.34 -24.89 18.29 -29 18.25 C-29.79 18.26 -30.59 18.27 -31.41 18.27 C-35.72 18.26 -39.07 18 -43 16 C-43 15.67 -43 15.34 -43 15 C-42.45 15.02 -41.89 15.03 -41.32 15.05 C-25.72 15.59 -25.72 15.59 -11 11 C-9.87 8.98 -9.87 8.98 -9 7 C-8.01 7 -7.02 7 -6 7 C-5.9 6.4 -5.79 5.8 -5.69 5.19 C-4.72 2.11 -3.39 0 0 0 Z " fill="#8CB364" transform="translate(481,683)"/>
<path d="M0 0 C7.26 0 14.52 0 22 0 C22 0.33 22 0.66 22 1 C20.72 0.77 19.44 0.54 18.12 0.3 C12.43 -0.31 7.24 -0.58 2 2 C-3.85 8.38 -7.04 16.73 -10.43 24.59 C-12.9 29.96 -15.91 34.96 -19 40 C-19.33 38.68 -19.66 37.36 -20 36 C-19.34 36 -18.68 36 -18 36 C-17.81 35.12 -17.81 35.12 -17.61 34.23 C-17.02 32.08 -16.27 30.35 -15.25 28.38 C-14.9 27.69 -14.54 27 -14.18 26.29 C-13.79 25.53 -13.4 24.78 -13 24 C-12.14 22.27 -11.29 20.54 -10.44 18.81 C-8.75 15.44 -6.97 12.21 -5 9 C-3.35 6.03 -1.7 3.06 0 0 Z " fill="#6587A3" transform="translate(605,460)"/>
<path d="M0 0 C1.1 1.77 1.1 1.77 2 4 C0.78 6.91 -0.51 9.46 -2.06 12.19 C-2.99 13.87 -3.92 15.56 -4.84 17.25 C-5.34 18.16 -5.85 19.08 -6.37 20.02 C-9.38 25.53 -12.24 31.11 -15.12 36.69 C-16.25 38.86 -17.38 41.03 -18.51 43.2 C-19.34 44.8 -20.17 46.4 -21 48 C-21.33 48 -21.66 48 -22 48 C-22 46.35 -22 44.7 -22 43 C-21.34 43 -20.68 43 -20 43 C-19.72 42.14 -19.45 41.28 -19.16 40.4 C-18.03 37.07 -16.74 33.86 -15.38 30.62 C-14.93 29.57 -14.48 28.51 -14.02 27.41 C-13.69 26.62 -13.35 25.82 -13 25 C-12.34 25 -11.68 25 -11 25 C-10.93 24.35 -10.86 23.71 -10.78 23.04 C-9.69 18.78 -7.62 15.21 -5.5 11.38 C-4.68 9.86 -3.85 8.35 -3.03 6.84 C-2.67 6.17 -2.3 5.51 -1.92 4.82 C-0.87 2.85 -0.87 2.85 0 0 Z " fill="#587C9B" transform="translate(168,541)"/>
<path d="M0 0 C3.81 0.54 5.52 2.11 8 5 C13.62 13.57 11.27 27.44 10 37 C8.51 37.5 8.51 37.5 7 38 C7 38.66 7 39.32 7 40 C6.34 40 5.68 40 5 40 C5.22 39.45 5.43 38.9 5.66 38.34 C8.7 29.67 9.91 20.26 6.72 11.48 C4.73 7.45 2.49 3.74 0 0 Z " fill="#53817A" transform="translate(475,647)"/>
<path d="M0 0 C-1.69 1.13 -3.4 2.23 -5.16 3.23 C-19.8 11.54 -28.51 22.73 -33 39 C-33.33 39 -33.66 39 -34 39 C-33.13 27.07 -27.22 16.43 -18.31 8.44 C-15.94 6.44 -14.05 5.59 -11 5 C-11 4.34 -11 3.68 -11 3 C-7.14 0.85 -4.45 -0.39 0 0 Z " fill="#55799A" transform="translate(673,462)"/>
<path d="M0 0 C3 1 3 1 4.32 3.19 C9.66 15.25 12.82 29.07 9.1 42.16 C8 44.62 8 44.62 6 48 C4.72 45.43 5.22 44.68 5.94 41.94 C8.46 29.9 7.87 18.34 3 7 C2.54 5.87 2.54 5.87 2.07 4.71 C1.41 3.13 0.71 1.56 0 0 Z " fill="#527797" transform="translate(739,483)"/>
<path d="M0 0 C3.07 2.87 4.78 4.73 5.2 9.05 C5.31 14.14 4.94 17.65 2 22 C-3.41 26.88 -6.85 27.33 -14 27.3 C-18.11 26.89 -19.96 25.71 -23 23 C-21.25 22.31 -21.25 22.31 -19 22 C-18.42 22.47 -17.85 22.95 -17.25 23.44 C-13.98 25.71 -10.81 25.44 -7 25 C-4.12 24.34 -4.12 24.34 -2 23 C-1.67 22.01 -1.34 21.02 -1 20 C-0.01 20 0.98 20 2 20 C2 15.38 2 10.76 2 6 C1.34 5.67 0.68 5.34 0 5 C0 3.35 0 1.7 0 0 Z " fill="#8CB36A" transform="translate(754,551)"/>
<path d="M0 0 C10.89 0 21.78 0 33 0 C33 0.33 33 0.66 33 1 C32.1 1.03 31.19 1.05 30.26 1.08 C26.92 1.17 23.58 1.27 20.24 1.37 C18.79 1.42 17.34 1.46 15.89 1.5 C13.82 1.55 11.74 1.62 9.66 1.68 C8.41 1.72 7.16 1.76 5.87 1.79 C3.1 1.68 3.1 1.68 2 3 C2 7.29 2 11.58 2 16 C15.86 16.5 15.86 16.5 30 17 C30 17.33 30 17.66 30 18 C20.1 18 10.2 18 0 18 C0 12.06 0 6.12 0 0 Z " fill="#EAFBFE" transform="translate(750,461)"/>
<path d="M0 0 C15.37 7 30.2 14.89 45 23 C44.34 23.66 43.68 24.32 43 25 C42.25 24.58 41.5 24.16 40.73 23.72 C39.75 23.17 38.76 22.63 37.75 22.06 C36.29 21.24 36.29 21.24 34.8 20.41 C32.46 19.23 30.55 18.48 28 18 C28 17.34 28 16.68 28 16 C27.27 15.72 26.54 15.44 25.78 15.14 C23.26 14.11 20.9 12.97 18.5 11.69 C17.67 11.25 16.85 10.82 16 10.37 C15.16 9.92 14.31 9.46 13.44 9 C11.75 8.1 10.06 7.21 8.37 6.31 C7.63 5.92 6.88 5.52 6.12 5.11 C4.09 4.05 2.05 3.02 0 2 C0 1.34 0 0.68 0 0 Z " fill="#597C99" transform="translate(402,577)"/>
<path d="M0 0 C3.51 3.14 5.63 6.6 7.75 10.75 C8.09 11.4 8.43 12.05 8.77 12.72 C9.49 14.1 10.2 15.48 10.9 16.86 C12.01 19.02 13.14 21.18 14.26 23.33 C14.99 24.74 15.71 26.15 16.44 27.56 C16.78 28.22 17.12 28.87 17.47 29.54 C19.4 33.36 20.53 36.75 21 41 C18.35 37.71 16.46 34.23 14.53 30.48 C14.05 29.54 14.05 29.54 13.56 28.59 C12.53 26.6 11.52 24.61 10.5 22.62 C9.82 21.3 9.13 19.97 8.45 18.64 C6.63 15.1 4.81 11.55 3 8 C2.43 6.91 1.87 5.82 1.28 4.7 C0 2 0 2 0 0 Z " fill="#597C9C" transform="translate(423,481)"/>
<path d="M0 0 C1.03 0 2.06 0 3.12 0 C5.29 0.01 7.46 0.02 9.63 0.05 C12.96 0.09 16.28 0.09 19.61 0.09 C21.72 0.1 23.83 0.11 25.94 0.12 C26.94 0.13 27.94 0.13 28.96 0.13 C29.89 0.14 30.81 0.16 31.76 0.17 C32.57 0.18 33.38 0.19 34.22 0.19 C36.2 0.46 36.2 0.46 38.2 2.46 C37.63 2.45 37.05 2.44 36.46 2.43 C30.46 2.35 24.45 2.29 18.45 2.24 C16.21 2.22 13.97 2.19 11.74 2.16 C8.51 2.11 5.29 2.09 2.07 2.07 C0.57 2.04 0.57 2.04 -0.95 2.01 C-6.96 2.01 -10.15 2.6 -14.8 6.46 C-16.12 7.16 -17.44 7.84 -18.8 8.46 C-17.6 5.1 -15.75 3.22 -12.75 1.3 C-8.7 -0.44 -4.33 -0.06 0 0 Z " fill="#EAFAFD" transform="translate(299.796875,322.5390625)"/>
<path d="M0 0 C0.67 1.8 0.67 1.8 1 4 C-0.07 5.67 -0.07 5.67 -1.69 7.19 C-2.21 7.7 -2.73 8.21 -3.26 8.73 C-6.27 10.93 -9.44 11.13 -13.08 11.16 C-13.87 11.17 -14.66 11.18 -15.47 11.19 C-16.74 11.2 -16.74 11.2 -18.04 11.2 C-19.35 11.21 -19.35 11.21 -20.69 11.22 C-22.53 11.23 -24.38 11.24 -26.23 11.24 C-29.06 11.25 -31.88 11.28 -34.71 11.31 C-36.51 11.32 -38.3 11.32 -40.1 11.33 C-41.37 11.35 -41.37 11.35 -42.66 11.37 C-48.61 11.34 -48.61 11.34 -50.75 9.48 C-51.37 8.75 -51.37 8.75 -52 8 C-51.34 8.16 -50.67 8.32 -49.99 8.49 C-46.36 9.11 -42.81 9.18 -39.14 9.2 C-38.39 9.21 -37.64 9.21 -36.86 9.22 C-35.28 9.23 -33.69 9.24 -32.11 9.24 C-29.71 9.25 -27.3 9.28 -24.9 9.31 C-23.35 9.32 -21.81 9.32 -20.26 9.33 C-19.55 9.34 -18.84 9.35 -18.11 9.37 C-13.06 9.34 -8.46 8.5 -4 6 C-2.26 4.08 -1.23 2.31 0 0 Z " fill="#4C7294" transform="translate(157,687)"/>
<path d="M0 0 C0.66 0 1.32 0 2 0 C16.65 26.61 16.65 26.61 21 37 C20.01 37.5 20.01 37.5 19 38 C16.29 32.75 13.59 27.5 10.88 22.25 C9.96 20.46 9.04 18.67 8.12 16.88 C6.8 14.32 5.48 11.76 4.16 9.19 C3.53 7.99 3.53 7.99 2.9 6.75 C0 1.11 0 1.11 0 0 Z " fill="#5B7E9B" transform="translate(446,526)"/>
<path d="M0 0 C0.99 0 1.98 0 3 0 C3 0.66 3 1.32 3 2 C4.45 2.46 4.45 2.46 5.94 2.94 C9 4 9 4 10 5 C20.2 6.39 29.22 6.86 38 1 C38.66 1 39.32 1 40 1 C39.67 1.99 39.34 2.98 39 4 C31.24 7.88 24.5 8.25 16 8 C15.19 7.98 14.37 7.97 13.53 7.95 C7.66 7.6 4.44 5.87 0 2 C0 1.34 0 0.68 0 0 Z " fill="#94B748" transform="translate(431,691)"/>
<path d="M0 0 C0.66 0.33 1.32 0.66 2 1 C1.06 1.92 1.06 1.92 0.1 2.86 C-0.72 3.67 -1.53 4.48 -2.38 5.31 C-3.19 6.11 -4 6.91 -4.84 7.74 C-8.02 11.07 -9.24 13.13 -9.41 17.67 C-9.45 18.56 -9.49 19.45 -9.53 20.37 C-9.56 21.3 -9.59 22.23 -9.62 23.19 C-9.66 24.13 -9.7 25.07 -9.74 26.04 C-9.84 28.36 -9.92 30.68 -10 33 C-12.15 29.09 -12.3 26.11 -12.31 21.62 C-12.33 20.34 -12.35 19.05 -12.36 17.73 C-11.88 12.73 -10.48 9.53 -6.99 5.92 C-6.29 5.35 -5.59 4.78 -4.88 4.19 C-4.17 3.6 -3.47 3.02 -2.74 2.42 C-2.17 1.95 -1.59 1.48 -1 1 C-0.67 0.67 -0.34 0.34 0 0 Z " fill="#90B55D" transform="translate(433,646)"/>
<path d="M0 0 C11.92 -0.62 20 0.25 29.12 8.25 C30.43 9.49 31.73 10.73 33 12 C32.34 12.66 31.68 13.32 31 14 C31 13.34 31 12.68 31 12 C30.34 12 29.68 12 29 12 C27.67 10.67 26.33 9.33 25 8 C19.63 4 16.05 2.94 9.5 3.06 C5.88 3.12 3.27 2.69 0 1 C0 0.67 0 0.34 0 0 Z " fill="#537696" transform="translate(686,479)"/>
<path d="M0 0 C6.66 8.27 12.36 19.07 16 29 C15.59 31.23 15.59 31.23 15 33 C9.67 22.33 4.33 11.67 -1 1 C-0.67 0.67 -0.34 0.34 0 0 Z " fill="#587C9A" transform="translate(405,445)"/>
<path d="M0 0 C0.7 1.73 0.7 1.73 1 4 C-0.29 6.14 -0.29 6.14 -2.19 8.25 C-2.8 8.96 -3.41 9.66 -4.04 10.39 C-6 12 -6 12 -10 12 C-10 12.66 -10 13.32 -10 14 C-13.51 15.6 -16.14 16.22 -20 16 C-17 14 -17 14 -14.62 13.19 C-11.32 11.69 -9.46 9.65 -7 7 C-5.7 5.63 -4.38 4.28 -3 3 C-2.34 3 -1.68 3 -1 3 C-0.67 2.01 -0.34 1.02 0 0 Z " fill="#477992" transform="translate(479,687)"/>
<path d="M0 0 C-2.23 1.12 -4.47 2.23 -6.71 3.34 C-8.97 4.48 -11.23 5.64 -13.47 6.82 C-14.67 7.45 -15.87 8.07 -17.06 8.69 C-17.66 9.01 -18.26 9.33 -18.88 9.66 C-22.4 11.47 -25.03 12.4 -29 12 C-25.35 8.97 -21.29 7.02 -17.06 4.94 C-16.36 4.59 -15.66 4.23 -14.93 3.87 C-4.08 -1.51 -4.08 -1.51 0 0 Z " fill="#5C7F9D" transform="translate(258,573)"/>
<path d="M0 0 C0.66 0 1.32 0 2 0 C0.38 5.64 -2.25 10.59 -5 15.75 C-5.45 16.61 -5.9 17.47 -6.37 18.36 C-9.74 24.74 -9.74 24.74 -12 27 C-11.29 19.58 -8.73 14.21 -5 7.88 C-4.55 7.1 -4.1 6.33 -3.63 5.54 C-1.14 1.43 -1.14 1.43 0 0 Z " fill="#577C9C" transform="translate(275,337)"/>
<path d="M0 0 C0.66 0 1.32 0 2 0 C0.49 5.26 -1.9 9.67 -4.62 14.38 C-5.26 15.48 -5.26 15.48 -5.9 16.61 C-6.93 18.41 -7.96 20.2 -9 22 C-9.99 22 -10.98 22 -12 22 C-12.66 20.35 -13.32 18.7 -14 17 C-12.84 16.88 -12.84 16.88 -11.66 16.76 C-8.91 16.26 -8.91 16.26 -7.56 14.18 C-7.19 13.42 -6.82 12.66 -6.44 11.88 C-6.03 11.07 -5.62 10.26 -5.2 9.43 C-4.81 8.63 -4.41 7.83 -4 7 C-3.24 5.64 -2.47 4.28 -1.69 2.94 C-1.13 1.97 -0.57 1 0 0 Z " fill="#5C7E9C" transform="translate(583,500)"/>
<path d="M0 0 C2 1 2 1 3.12 4.06 C4.33 9.14 4.1 14.28 3.93 19.45 C3.83 23.23 3.84 24.76 6 28 C5.01 28 4.02 28 3 28 C3 27.34 3 26.68 3 26 C2.34 26 1.68 26 1 26 C1.01 24.88 1.02 23.75 1.04 22.6 C1.09 14.99 1.1 7.55 0 0 Z " fill="#6686A0" transform="translate(721,497)"/>
<path d="M0 0 C3.35 3.81 5.17 7.33 7 12 C-0.35 11.47 -7.68 10.87 -15 10 C-15 9.67 -15 9.34 -15 9 C-9.39 9 -3.78 9 2 9 C1.34 6.03 0.68 3.06 0 0 Z " fill="#6988A3" transform="translate(366,497)"/>
<path d="M0 0 C0.66 0 1.32 0 2 0 C5.08 9.53 7.18 17.97 7 28 C4.44 25.44 4.43 23.8 3.88 20.25 C3.71 19.22 3.54 18.2 3.37 17.14 C3.01 14.06 2.94 11.1 3 8 C2.34 8 1.68 8 1 8 C0.67 5.36 0.34 2.72 0 0 Z " fill="#5B7F9E" transform="translate(1016,73)"/>
<path d="M0 0 C0.66 0.33 1.32 0.66 2 1 C1.01 1.33 0.02 1.66 -1 2 C-1.43 2.87 -1.43 2.87 -1.88 3.77 C-3.39 6.78 -5.49 8.52 -8 10.75 C-8.89 11.55 -9.77 12.35 -10.69 13.17 C-13 15 -13 15 -15 15 C-15.33 15.99 -15.66 16.98 -16 18 C-16.66 17.34 -17.32 16.68 -18 16 C-6.66 4.29 -6.66 4.29 0 0 Z " fill="#597F9F" transform="translate(44,22)"/>
<path d="M0 0 C1.08 0.02 2.16 0.04 3.27 0.05 C4.5 0.09 4.5 0.09 5.75 0.12 C6.08 0.79 6.41 1.44 6.75 2.12 C5.45 2.33 4.15 2.53 2.8 2.75 C1.08 3.02 -0.65 3.29 -2.38 3.56 C-3.23 3.7 -4.09 3.83 -4.97 3.97 C-9.4 4.67 -13.83 5.38 -18.25 6.12 C-18.58 5.46 -18.91 4.81 -19.25 4.12 C-18.65 4 -18.04 3.88 -17.42 3.76 C-16.62 3.59 -15.82 3.42 -15 3.25 C-14.21 3.09 -13.42 2.93 -12.61 2.76 C-10.25 2.23 -10.25 2.23 -8.34 1.06 C-5.49 -0.22 -3.11 -0.07 0 0 Z " fill="#5E80A0" transform="translate(287.25,505.875)"/>
<path d="M0 0 C3.05 1.59 4.7 2.97 6.3 6.03 C6.48 6.77 6.67 7.52 6.86 8.28 C6.39 7.86 5.92 7.44 5.43 7 C4.81 6.46 4.19 5.91 3.55 5.34 C2.93 4.8 2.32 4.25 1.68 3.69 C-2.13 0.75 -6.52 0.77 -11.14 1.28 C-14.73 2.92 -15.93 3.97 -18.14 7.28 C-19.13 7.28 -20.12 7.28 -21.14 7.28 C-19.74 3.91 -18.22 2.24 -15.14 0.28 C-10.25 -1.35 -4.94 -1.66 0 0 Z " fill="#8BB472" transform="translate(700.140625,496.71875)"/>
<path d="M0 0 C0.86 2.41 1.12 3.64 0.3 6.1 C-0.07 6.84 -0.45 7.58 -0.84 8.34 C-1.44 9.56 -1.44 9.56 -2.06 10.81 C-2.71 12.08 -2.71 12.08 -3.38 13.38 C-7.24 20.83 -7.24 20.83 -9 29 C-9.33 29 -9.66 29 -10 29 C-10.97 18.96 -6.1 10.38 -1 2 C-0.67 1.34 -0.34 0.68 0 0 Z " fill="#517899" transform="translate(108,657)"/>
<path d="M0 0 C0.66 0.99 1.32 1.98 2 3 C-7.23 17.78 -7.23 17.78 -13 24 C-13 20.39 -12.01 18.94 -10 16 C-9.34 15.67 -8.68 15.34 -8 15 C-6.94 13.26 -5.95 11.48 -5 9.69 C-4.48 8.72 -3.97 7.76 -3.44 6.76 C-2.27 4.52 -1.12 2.27 0 0 Z " fill="#527898" transform="translate(1010,962)"/>
<path d="M0 0 C1.98 0.99 1.98 0.99 4 2 C4 2.66 4 3.32 4 4 C4.56 4.21 5.11 4.41 5.69 4.62 C8.97 6.58 10.71 8.94 13 12 C13 12.66 13 13.32 13 14 C13.66 14 14.32 14 15 14 C14.67 14.99 14.34 15.98 14 17 C11.84 14.93 9.7 12.84 7.56 10.75 C6.65 9.87 6.65 9.87 5.71 8.97 C5.13 8.4 4.54 7.83 3.94 7.23 C3.4 6.71 2.86 6.19 2.31 5.65 C0.83 3.78 0.41 2.32 0 0 Z " fill="#4C7D80" transform="translate(718,527)"/>
<path d="M0 0 C0.66 0 1.32 0 2 0 C0.44 5.35 -1.98 10 -4.62 14.88 C-5.05 15.66 -5.47 16.44 -5.9 17.25 C-6.93 19.17 -7.96 21.08 -9 23 C-9.66 22.34 -10.32 21.68 -11 21 C-9.66 17.39 -7.99 14.29 -6 11 C-4.63 8.35 -3.31 5.68 -2 3 C-1.34 3 -0.68 3 0 3 C0 2.01 0 1.02 0 0 Z " fill="#587D9C" transform="translate(223,437)"/>
<path d="M0 0 C-6.08 4.27 -12.28 7.83 -19 11 C-19 10.01 -19 9.02 -19 8 C-17.71 7.33 -16.42 6.66 -15.12 6 C-14.41 5.63 -13.69 5.26 -12.95 4.88 C-11 4 -11 4 -9 4 C-9 3.34 -9 2.68 -9 2 C-3.38 -1.12 -3.38 -1.12 0 0 Z " fill="#577B9B" transform="translate(979,1003)"/>
<path d="M0 0 C0.99 0.5 0.99 0.5 2 1 C2.34 3.19 2.34 3.19 2.5 6 C2.82 10.6 3.55 14.79 4.79 19.22 C4.86 19.81 4.93 20.4 5 21 C4.34 21.66 3.68 22.32 3 23 C1.14 15.22 -0.41 8.02 0 0 Z " fill="#567D9C" transform="translate(1,922)"/>
<path d="M0 0 C1.21 -0.03 2.43 -0.05 3.68 -0.08 C8.72 0.4 11.79 2.56 15.12 6.25 C14.79 6.91 14.47 7.57 14.12 8.25 C13.42 7.73 13.42 7.73 12.7 7.19 C12.08 6.74 11.45 6.28 10.81 5.81 C10.2 5.36 9.58 4.91 8.95 4.44 C5.71 2.33 2.95 2.11 -0.81 2.12 C-1.67 2.12 -2.52 2.12 -3.4 2.12 C-5.7 2.24 -7.67 2.61 -9.88 3.25 C-9.88 2.59 -9.88 1.93 -9.88 1.25 C-6.43 0.1 -3.63 0.05 0 0 Z " fill="#55857E" transform="translate(693.875,494.75)"/>
<path d="M0 0 C3.81 0.79 5.44 2.01 8 5 C9.99 8.08 10.2 10.37 10 14 C6.95 11.17 4.83 8.34 2.75 4.75 C2.23 3.86 1.71 2.97 1.17 2.05 C0.79 1.37 0.4 0.7 0 0 Z " fill="#4E7E84" transform="translate(475,647)"/>
<path d="M0 0 C0.91 2.94 1.14 3.68 -0.14 6.62 C-0.69 7.55 -1.25 8.48 -1.81 9.44 C-3.85 12.91 -5.52 16.26 -7 20 C-7.66 20.99 -8.32 21.98 -9 23 C-9.66 23 -10.32 23 -11 23 C-9.16 18.05 -6.75 13.4 -4.38 8.69 C-3.95 7.85 -3.53 7.02 -3.1 6.15 C-2.07 4.1 -1.04 2.05 0 0 Z " fill="#567B99" transform="translate(277,456)"/>
<path d="M0 0 C0.33 0 0.66 0 1 0 C1.08 3.58 0.87 6.56 0 10 C-0.49 13.14 -0.95 16.28 -1.4 19.42 C-1.6 20.27 -1.8 21.12 -2 22 C-2.66 22.33 -3.32 22.66 -4 23 C-4.66 14.95 -2.23 7.64 0 0 Z " fill="#547B9B" transform="translate(5,78)"/>
<path d="M0 0 C0.99 0 1.98 0 3 0 C4.21 2.42 5.42 4.83 6.62 7.25 C7.48 8.96 8.35 10.66 9.26 12.34 C10.24 14.19 11.13 16.09 12 18 C11.67 18.99 11.34 19.98 11 21 C9.16 17.69 7.33 14.38 5.5 11.06 C4.98 10.12 4.45 9.17 3.91 8.2 C3.17 6.85 3.17 6.85 2.41 5.47 C1.95 4.64 1.48 3.81 1.01 2.95 C0 1 0 1 0 0 Z " fill="#577B99" transform="translate(546,476)"/>
<path d="M0 0 C0.99 0.33 1.98 0.66 3 1 C4.69 4.56 4.69 4.56 6 8 C5.01 8.5 5.01 8.5 4 9 C3.67 8.01 3.34 7.02 3 6 C2.01 5.67 1.02 5.34 0 5 C-0.31 5.78 -0.62 6.57 -0.94 7.38 C-2 10 -2 10 -3 12 C-3.66 12 -4.32 12 -5 12 C-3.69 7.77 -2.06 3.93 0 0 Z " fill="#5E7F9A" transform="translate(310,392)"/>
<path d="M0 0 C0.66 0.33 1.32 0.66 2 1 C1.49 1.55 0.98 2.09 0.46 2.65 C-4.25 7.81 -8.3 13.08 -12 19 C-12.33 17.68 -12.66 16.36 -13 15 C-12.34 15 -11.68 15 -11 15 C-10.67 13.68 -10.34 12.36 -10 11 C-9.34 11 -8.68 11 -8 11 C-7.67 9.68 -7.34 8.36 -7 7 C-6.34 7 -5.68 7 -5 7 C-4.73 6.4 -4.46 5.8 -4.19 5.19 C-3.02 3.03 -1.81 1.64 0 0 Z " fill="#E4F6FB" transform="translate(29,33)"/>
<path d="M0 0 C0 0.33 0 0.66 0 1 C-1.5 1.18 -1.5 1.18 -3.04 1.37 C-4.38 1.54 -5.72 1.71 -7.06 1.88 C-8.05 1.99 -8.05 1.99 -9.05 2.11 C-13.52 2.69 -17.66 3.74 -22 5 C-22.99 5 -23.98 5 -25 5 C-25 4.34 -25 3.68 -25 3 C-16.51 0.43 -8.85 -0.39 0 0 Z " fill="#52799B" transform="translate(101,2)"/>
<path d="M0 0 C0.33 0 0.66 0 1 0 C1.03 0.82 1.05 1.64 1.08 2.49 C1.43 9.35 2.3 14.85 5.26 21.07 C5.5 21.71 5.75 22.35 6 23 C5.67 23.66 5.34 24.32 5 25 C1.37 21.52 -0.33 19.37 -0.49 14.26 C-0.46 12.55 -0.4 10.83 -0.31 9.12 C-0.29 8.25 -0.27 7.37 -0.24 6.46 C-0.19 4.31 -0.1 2.15 0 0 Z " fill="#528079" transform="translate(419,663)"/>
<path d="M0 0 C4.92 1.19 7.18 4.23 10.29 7.96 C12.39 10.46 14.65 12.72 17 15 C16.67 15.66 16.34 16.32 16 17 C13.33 14.36 10.66 11.71 8 9.06 C7.24 8.31 6.47 7.55 5.69 6.78 C4.97 6.06 4.24 5.34 3.5 4.6 C2.83 3.93 2.16 3.27 1.47 2.58 C0 1 0 1 0 0 Z " fill="#9ABE4E" transform="translate(705,530)"/>
<path d="M0 0 C2.04 2.25 3.02 3.34 2.93 6.44 C2.77 7.28 2.61 8.13 2.44 9 C1.76 13.11 1.76 13.11 3.94 16.62 C4.62 17.08 5.3 17.53 6 18 C5.67 18.66 5.34 19.32 5 20 C1.49 17.15 0.1 15.8 -0.49 11.23 C-0.46 9.88 -0.4 8.53 -0.31 7.19 C-0.29 6.49 -0.27 5.8 -0.24 5.09 C-0.19 3.39 -0.1 1.7 0 0 Z " fill="#47778E" transform="translate(710,505)"/>
<path d="M0 0 C0.96 2.88 0.96 4.82 0.81 7.94 C0.73 12.14 2.16 13.9 5 17 C5 17.99 5 18.98 5 20 C5.99 20.33 6.98 20.66 8 21 C7.34 21.33 6.68 21.66 6 22 C-0.78 15.57 -0.78 15.57 -1.23 10.27 C-1.22 9.32 -1.2 8.36 -1.19 7.38 C-1.18 6.41 -1.17 5.45 -1.17 4.46 C-1 2 -1 2 0 0 Z " fill="#8AB272" transform="translate(678,504)"/>
<path d="M0 0 C0.66 0 1.32 0 2 0 C0.56 4.91 -1.54 9 -4.12 13.38 C-4.5 14.02 -4.87 14.66 -5.25 15.32 C-6.16 16.88 -7.08 18.44 -8 20 C-8.33 18.68 -8.66 17.36 -9 16 C-8.34 16 -7.68 16 -7 16 C-6.87 15.42 -6.75 14.85 -6.62 14.25 C-5.99 11.97 -5.15 10.09 -4.06 8 C-3.72 7.34 -3.38 6.68 -3.04 6 C-2.69 5.34 -2.35 4.68 -2 4 C-1.33 2.67 -0.66 1.33 0 0 Z " fill="#5A7E9C" transform="translate(594,480)"/>
<path d="M0 0 C0.33 0 0.66 0 1 0 C1.49 4.05 1.08 6.29 -1.31 9.5 C-1.99 10.37 -1.99 10.37 -2.69 11.25 C-4.5 13.66 -5.74 16.28 -7 19 C-8 16 -8 16 -7.38 14.19 C-7.04 13.54 -6.7 12.88 -6.35 12.21 C-5.98 11.49 -5.62 10.78 -5.24 10.05 C-4.85 9.31 -4.46 8.57 -4.06 7.81 C-3.48 6.69 -3.48 6.69 -2.89 5.54 C-1.94 3.69 -0.97 1.84 0 0 Z " fill="#537999" transform="translate(288,435)"/>
<path d="M0 0 C0.66 0.99 1.32 1.98 2 3 C1.69 3.48 1.37 3.97 1.05 4.47 C-1.97 9.19 -4.57 13.96 -7 19 C-7.66 18.67 -8.32 18.34 -9 18 C-7.46 13.86 -5.49 10.06 -3.38 6.19 C-3.05 5.59 -2.73 4.99 -2.39 4.38 C-1.6 2.92 -0.8 1.46 0 0 Z " fill="#597C9A" transform="translate(602,507)"/>
<path d="M0 0 C9.9 0 19.8 0 30 0 C30 0.33 30 0.66 30 1 C28.84 1.03 28.84 1.03 27.66 1.06 C24.17 1.16 20.68 1.26 17.19 1.38 C15.97 1.41 14.76 1.44 13.51 1.47 C11.76 1.53 11.76 1.53 9.98 1.59 C8.91 1.62 7.83 1.65 6.73 1.68 C3.78 1.82 3.78 1.82 1 4 C0.67 2.68 0.34 1.36 0 0 Z " fill="#4A7093" transform="translate(802,480)"/>
<path d="M0 0 C0.33 0 0.66 0 1 0 C1.06 0.88 1.12 1.76 1.18 2.67 C1.27 3.83 1.35 4.99 1.44 6.19 C1.56 7.91 1.56 7.91 1.68 9.67 C1.95 12.52 2.38 15.21 3 18 C0.24 15.75 -0.91 14.64 -1.43 11.05 C-1.39 10.01 -1.35 8.96 -1.31 7.88 C-1.29 6.82 -1.26 5.77 -1.24 4.68 C-1 2 -1 2 0 0 Z " fill="#8FB56C" transform="translate(728,555)"/>
<path d="M0 0 C0.96 3.04 1.11 3.74 -0.19 6.81 C-0.79 7.86 -1.38 8.92 -2 10 C-2.36 10.64 -2.72 11.28 -3.09 11.94 C-4.05 13.63 -5.02 15.32 -6 17 C-6.66 17 -7.32 17 -8 17 C-6.33 10.84 -3.12 5.52 0 0 Z " fill="#5B7F9E" transform="translate(180,643)"/>
<path d="M0 0 C0.61 1.82 0.61 1.82 1 4 C-0.75 6.88 -0.75 6.88 -3 10 C-4.03 11.99 -5.04 13.98 -6 16 C-6.66 15.67 -7.32 15.34 -8 15 C-6.63 11.3 -4.94 8.05 -2.88 4.69 C-2.34 3.8 -1.8 2.92 -1.24 2.01 C-0.83 1.35 -0.42 0.68 0 0 Z " fill="#5B7E9C" transform="translate(195,616)"/>
<path d="M0 0 C-10.38 5.31 -10.38 5.31 -17 5 C-12.53 0.92 -5.92 -1.99 0 0 Z " fill="#D8EBF5" transform="translate(683,461)"/>
<path d="M0 0 C0 3 0 3 -2.41 5.48 C-3.43 6.39 -4.46 7.29 -5.5 8.19 C-6.02 8.65 -6.55 9.11 -7.09 9.59 C-8.39 10.74 -9.69 11.87 -11 13 C-11 10 -11 10 -9.06 8 C-8.38 7.34 -7.7 6.68 -7 6 C-6.67 5.01 -6.34 4.02 -6 3 C-2.94 1.31 -2.94 1.31 0 0 Z " fill="#567C9F" transform="translate(680,481)"/>
<path d="M0 0 C3.59 0.57 5.17 1.86 7.62 4.5 C10.04 7.12 10.04 7.12 13 9 C13.62 12.06 13.62 12.06 14 15 C13.45 14.27 12.9 13.55 12.33 12.8 C9.98 9.98 7.51 7.66 4.75 5.25 C3.15 3.85 1.56 2.44 0 1 C0 0.67 0 0.34 0 0 Z " fill="#597B99" transform="translate(725,468)"/>
<path d="M0 0 C3.28 3.74 5.37 7.29 7 12 C6.67 13.32 6.34 14.64 6 16 C3.69 11.05 1.38 6.1 -1 1 C-0.67 0.67 -0.34 0.34 0 0 Z " fill="#5F819F" transform="translate(351,341)"/>
<path d="M0 0 C4.92 4.12 9.53 8.4 14 13 C9.71 13 8.15 10.75 5 8 C4.34 7.67 3.68 7.34 3 7 C0 2.5 0 2.5 0 0 Z " fill="#9BBE50" transform="translate(712,526)"/>
<path d="M0 0 C0.66 0.33 1.32 0.66 2 1 C0.26 2.65 -1.49 4.3 -3.25 5.94 C-3.74 6.41 -4.23 6.87 -4.74 7.36 C-7.37 9.79 -9.37 11.59 -13 12 C-9.12 7.07 -5.24 3.46 0 0 Z " fill="#E1F0F6" transform="translate(664,466)"/>
<path d="M0 0 C1.25 4.22 0.67 7.96 0.06 12.25 C-0.04 13 -0.14 13.74 -0.24 14.51 C-0.49 16.34 -0.74 18.17 -1 20 C-1.33 20 -1.66 20 -2 20 C-2 13.73 -2 7.46 -2 1 C-1.34 0.67 -0.68 0.34 0 0 Z " fill="#DCF3FC" transform="translate(2,84)"/>
<path d="M0 0 C11.92 6.92 11.92 6.92 16 11 C11.25 10.42 8.03 8.45 4 6 C4 5.34 4 4.68 4 4 C2.68 3.34 1.36 2.68 0 2 C0 1.34 0 0.68 0 0 Z " fill="#5E7F9C" transform="translate(653,549)"/>
<path d="M0 0 C0.66 0 1.32 0 2 0 C2.99 1.72 3.96 3.45 4.94 5.19 C5.48 6.15 6.03 7.11 6.59 8.11 C7.91 10.81 8.57 13.04 9 16 C5.79 13.33 4.49 10.08 2.81 6.31 C2.28 5.13 1.75 3.95 1.21 2.74 C0.81 1.83 0.41 0.93 0 0 Z " fill="#527897" transform="translate(446,526)"/>
<path d="M0 0 C6.26 2.7 9.94 5.53 14 11 C13.01 11.5 13.01 11.5 12 12 C12 11.34 12 10.68 12 10 C11.34 10 10.68 10 10 10 C8.67 8.67 7.33 7.33 6 6 C4.93 5.3 3.86 4.6 2.75 3.88 C1.84 3.26 0.93 2.64 0 2 C0 1.34 0 0.68 0 0 Z " fill="#5F809B" transform="translate(705,481)"/>
<path d="M0 0 C0.6 0.76 1.2 1.53 1.81 2.31 C4.62 5.76 7.4 8.39 11 11 C6.76 10.39 3.1 9.1 0 6 C-0.04 4 -0.04 2 0 0 Z " fill="#558680" transform="translate(677,517)"/>
<path d="M0 0 C0.66 0 1.32 0 2 0 C2.84 1.08 2.84 1.08 3.69 2.19 C5.7 4.63 7.19 5.95 9.75 7.69 C11.36 8.83 11.36 8.83 13 10 C13 10.66 13 11.32 13 12 C9.84 10.57 7.42 8.84 4.81 6.56 C4.12 5.97 3.42 5.37 2.71 4.75 C1 3 1 3 0 0 Z " fill="#587B98" transform="translate(31,989)"/>
<path d="M0 0 C0.66 0 1.32 0 2 0 C0.51 4.97 -1.6 9.42 -4 14 C-4.33 14 -4.66 14 -5 14 C-4.53 8.29 -3.06 4.84 0 0 Z " fill="#DAEFF5" transform="translate(273,460)"/>
<path d="M0 0 C0.33 0 0.66 0 1 0 C0.66 5.38 0.31 9.53 -3 14 C-4.37 10.31 -3.6 8.29 -2.06 4.75 C-1.68 3.86 -1.3 2.97 -0.91 2.05 C-0.61 1.37 -0.31 0.7 0 0 Z " fill="#517897" transform="translate(1016,948)"/>
<path d="M0 0 C0.66 1.8 0.66 1.8 1 4 C-1.11 7.39 -4.03 9.65 -7.75 11 C-8.49 11 -9.24 11 -10 11 C-10.66 10.34 -11.32 9.68 -12 9 C-10.76 8.63 -9.53 8.26 -8.25 7.88 C-3.72 6.21 -2.24 4.19 0 0 Z " fill="#577C9C" transform="translate(157,687)"/>
<path d="M0 0 C5.99 -0.32 9.64 0.32 15 3 C15 3.66 15 4.32 15 5 C13.25 4.55 11.5 4.09 9.75 3.62 C8.78 3.37 7.8 3.11 6.8 2.85 C4.34 2.1 2.24 1.23 0 0 Z " fill="#D7EAF2" transform="translate(375,567)"/>
<path d="M0 0 C0.66 0.33 1.32 0.66 2 1 C-0.31 5.29 -2.62 9.58 -5 14 C-5.33 14 -5.66 14 -6 14 C-6 12.35 -6 10.7 -6 9 C-5.34 9 -4.68 9 -4 9 C-3.9 8.44 -3.79 7.89 -3.69 7.31 C-2.87 4.56 -1.54 2.41 0 0 Z " fill="#E2F4F9" transform="translate(585,535)"/>
<path d="M0 0 C0.99 0.33 1.98 0.66 3 1 C2.4 1.7 1.8 2.4 1.19 3.12 C-0.98 5.97 -2.5 8.77 -4 12 C-4.33 12 -4.66 12 -5 12 C-5 10.02 -5 8.04 -5 6 C-4.34 6 -3.68 6 -3 6 C-3 5.01 -3 4.02 -3 3 C-2.34 3 -1.68 3 -1 3 C-0.67 2.01 -0.34 1.02 0 0 Z " fill="#5C81A0" transform="translate(282,325)"/>
<path d="M0 0 C0.66 0.33 1.32 0.66 2 1 C0.31 5.5 -1.82 9.73 -4 14 C-5.2 10.39 -4.71 9.76 -3.12 6.44 C-2.76 5.65 -2.39 4.87 -2.01 4.06 C-1.34 2.7 -0.68 1.35 0 0 Z " fill="#597D9C" transform="translate(120,634)"/>
<path d="M0 0 C0.66 0.99 1.32 1.98 2 3 C0.35 6.3 -1.3 9.6 -3 13 C-3.33 13 -3.66 13 -4 13 C-4.64 7.89 -2.41 4.33 0 0 Z " fill="#6083A1" transform="translate(201,478)"/>
<path d="M0 0 C0.66 0 1.32 0 2 0 C0.51 4.97 -1.6 9.42 -4 14 C-5.07 11.27 -5.08 10.21 -4 7.42 C-3.53 6.54 -3.05 5.66 -2.56 4.75 C-2.09 3.86 -1.62 2.97 -1.13 2.05 C-0.76 1.37 -0.38 0.7 0 0 Z " fill="#E1F3F9" transform="translate(305,398)"/>
<path d="M0 0 C0.66 0 1.32 0 2 0 C2.08 1.62 2.14 3.25 2.19 4.88 C2.22 5.78 2.26 6.68 2.29 7.62 C2.2 8.4 2.1 9.19 2 10 C0.51 10.99 0.51 10.99 -1 12 C-1.14 3.43 -1.14 3.43 0 0 Z " fill="#8FB44F" transform="translate(679,504)"/>
<path d="M0 0 C3 1 3 1 4.2 2.71 C4.55 3.4 4.89 4.1 5.25 4.81 C5.61 5.5 5.96 6.19 6.33 6.89 C7 9 7 9 6 13 C4.02 8.71 2.04 4.42 0 0 Z " fill="#5F809E" transform="translate(476,584)"/>
<path d="M0 0 C0.66 0 1.32 0 2 0 C0.59 4.83 -1.43 8.72 -4 13 C-5 10 -5 10 -4 7.52 C-3.53 6.63 -3.05 5.73 -2.56 4.81 C-2.09 3.91 -1.62 3.01 -1.13 2.08 C-0.76 1.39 -0.38 0.71 0 0 Z " fill="#DDF1F8" transform="translate(165,668)"/>
<path d="M0 0 C0.33 0.99 0.66 1.98 1 3 C2.65 3 4.3 3 6 3 C3.31 5.69 0.62 6.06 -3 7 C-1.12 2.25 -1.12 2.25 0 0 Z " fill="#69869C" transform="translate(248,512)"/>
<path d="M0 0 C0.87 0.34 0.87 0.34 1.75 0.69 C0.76 0.69 -0.23 0.69 -1.25 0.69 C-1.5 1.26 -1.75 1.84 -2 2.44 C-3.42 4.99 -5.13 6.71 -7.25 8.69 C-6.77 3.24 -6.77 3.24 -4.44 0.75 C-2.25 -0.31 -2.25 -0.31 0 0 Z " fill="#4E8188" transform="translate(685.25,495.3125)"/>
<path d="M0 0 C0.66 0 1.32 0 2 0 C0.69 4.23 -0.94 8.07 -3 12 C-3.33 12 -3.66 12 -4 12 C-4 10.35 -4 8.7 -4 7 C-3.34 7 -2.68 7 -2 7 C-1.86 6.22 -1.71 5.43 -1.56 4.62 C-1 2 -1 2 0 0 Z " fill="#5E819F" transform="translate(261,364)"/>
<path d="M0 0 C0.66 0.33 1.32 0.66 2 1 C2.03 2.96 2.05 4.92 2.06 6.88 C2.07 7.97 2.09 9.06 2.1 10.18 C2 13 2 13 1 15 C0.34 15 -0.32 15 -1 15 C-0.84 14.38 -0.67 13.76 -0.5 13.12 C0.2 8.75 0.08 4.43 0 0 Z " fill="#91B547" transform="translate(755,556)"/>
<path d="M0 0 C0.66 1.32 1.32 2.64 2 4 C0.73 6.04 -0.61 8.04 -2 10 C-2.66 10 -3.32 10 -4 10 C-2.89 6.51 -1.74 3.23 0 0 Z " fill="#6082A2" transform="translate(162,677)"/>
<path d="M0 0 C3.34 0.56 6.03 1.35 9 3 C8.67 4.32 8.34 5.64 8 7 C7.57 6.53 7.13 6.05 6.69 5.56 C4.98 3.76 4.98 3.76 2 3 C2 2.34 2 1.68 2 1 C1.34 0.67 0.68 0.34 0 0 Z " fill="#9BBD53" transform="translate(745,548)"/>
<path d="M0 0 C0.66 0 1.32 0 2 0 C3.51 1.97 3.51 1.97 5.12 4.5 C5.66 5.34 6.2 6.17 6.76 7.03 C7.17 7.68 7.58 8.33 8 9 C7.01 9 6.02 9 5 9 C4.73 8.2 4.46 7.39 4.19 6.56 C3.8 5.72 3.4 4.87 3 4 C2.01 3.67 1.02 3.34 0 3 C0 2.01 0 1.02 0 0 Z " fill="#5F829E" transform="translate(645,539)"/>
<path d="M0 0 C1 3 1 3 0.22 5.04 C-0.16 5.75 -0.54 6.46 -0.94 7.19 C-1.32 7.9 -1.7 8.62 -2.09 9.36 C-2.54 10.17 -2.54 10.17 -3 11 C-3.99 11 -4.98 11 -6 11 C-4.02 7.37 -2.04 3.74 0 0 Z " fill="#5E809C" transform="translate(592,525)"/>
<path d="M0 0 C0.33 0 0.66 0 1 0 C0.25 6.62 0.25 6.62 -2 10 C-2.66 10 -3.32 10 -4 10 C-2.89 6.51 -1.74 3.23 0 0 Z " fill="#597E9D" transform="translate(293,425)"/>
<path d="M0 0 C1.38 1.29 2.71 2.63 4 4 C4 4.66 4 5.32 4 6 C3.01 6 2.02 6 1 6 C0.67 6.99 0.34 7.98 0 9 C0 6.03 0 3.06 0 0 Z " fill="#587A96" transform="translate(539,504)"/>
<path d="M0 0 C0.66 0.33 1.32 0.66 2 1 C0.35 4.3 -1.3 7.6 -3 11 C-4.19 6.22 -3.38 5.12 -1 1 C-0.67 0.67 -0.34 0.34 0 0 Z " fill="#DCF0F6" transform="translate(285,438)"/>
<path d="M0 0 C0.33 0.99 0.66 1.98 1 3 C-0.98 4.98 -2.96 6.96 -5 9 C-5.66 8.67 -6.32 8.34 -7 8 C-4.69 5.36 -2.38 2.72 0 0 Z " fill="#DAEEF4" transform="translate(999,983)"/>
<path d="M0 0 C0 3.91 -1.51 5.12 -4 8 C-5.32 7.67 -6.64 7.34 -8 7 C-5.36 4.69 -2.72 2.38 0 0 Z " fill="#598771" transform="translate(476,690)"/>
<path d="M0 0 C3.48 3.02 4.79 5.57 6 10 C5.01 9.67 4.02 9.34 3 9 C2.05 6.93 2.05 6.93 1.31 4.44 C1.06 3.61 0.81 2.78 0.55 1.93 C0.37 1.3 0.19 0.66 0 0 Z " fill="#5A7E9A" transform="translate(556,534)"/>
<path d="M0 0 C0.33 0 0.66 0 1 0 C1.31 2.25 1.31 2.25 1 5 C-1.5 7.31 -1.5 7.31 -4 9 C-2.94 5.6 -1.99 2.99 0 0 Z " fill="#DFF1F7" transform="translate(582,506)"/>
<path d="M0 0 C0.66 0.33 1.32 0.66 2 1 C1.01 1.33 0.02 1.66 -1 2 C-2.21 4 -2.21 4 -3 6 C-4.32 6 -5.64 6 -7 6 C-2.25 1.12 -2.25 1.12 0 0 Z " fill="#517899" transform="translate(44,22)"/>
<path d="M0 0 C4 1.37 6.8 3.26 10 6 C6.06 5.44 3.25 4.32 0 2 C0 1.34 0 0.68 0 0 Z " fill="#5A7F9D" transform="translate(967,14)"/>
<path d="M0 0 C0.81 1.69 0.81 1.69 1 4 C-1.44 6.75 -1.44 6.75 -4 9 C-4.66 8.67 -5.32 8.34 -6 8 C-5.38 7.24 -4.76 6.47 -4.12 5.69 C-1.94 3 -1.94 3 0 0 Z " fill="#4A7B81" transform="translate(479,687)"/>
<path d="M0 0 C0.99 0.33 1.98 0.66 3 1 C3.33 2.98 3.66 4.96 4 7 C2.68 6.34 1.36 5.68 0 5 C0 3.35 0 1.7 0 0 Z " fill="#8FB45A" transform="translate(423,680)"/>
<path d="M0 0 C1 4 1 4 0.06 6.25 C-0.46 7.12 -0.46 7.12 -1 8 C-1.99 8 -2.98 8 -4 8 C-2.68 5.36 -1.36 2.72 0 0 Z " fill="#567A99" transform="translate(253,502)"/>
<path d="M0 0 C0.66 0 1.32 0 2 0 C0.75 3.46 -0.68 6.15 -3 9 C-3.26 5.94 -3.22 4.37 -1.62 1.69 C-0.82 0.85 -0.82 0.85 0 0 Z " fill="#E4F5FA" transform="translate(14,52)"/>
<path d="M0 0 C0 3 0 3 -1.31 4.39 C-2.88 5.59 -4.44 6.8 -6 8 C-6 7.01 -6 6.02 -6 5 C-5.34 5 -4.68 5 -4 5 C-3.67 4.01 -3.34 3.02 -3 2 C-2.01 1.34 -1.02 0.68 0 0 Z " fill="#597C9A" transform="translate(992,989)"/>
<path d="M0 0 C0.66 0.99 1.32 1.98 2 3 C0.73 5.04 -0.61 7.04 -2 9 C-2.66 9 -3.32 9 -4 9 C-2.8 5.92 -1.52 2.94 0 0 Z " fill="#E1F3F9" transform="translate(112,654)"/>
<path d="M0 0 C2.41 2.41 3.54 4.94 5 8 C4.01 8 3.02 8 2 8 C2 7.34 2 6.68 2 6 C1.34 6 0.68 6 0 6 C0 4.02 0 2.04 0 0 Z " fill="#5A809F" transform="translate(722,517)"/>
<path d="M0 0 C0.81 1.69 0.81 1.69 1 4 C-1.44 6.75 -1.44 6.75 -4 9 C-2.94 5.6 -1.99 2.99 0 0 Z " fill="#DAEDF5" transform="translate(194,497)"/>
</svg>
